<svg x="0px" y="0px" viewBox="0 0 52.000001 52.000001" xml:space="preserve" width="52" height="52" xmlns="http://www.w3.org/2000/svg">
  <path fill="#e20074" d="M0 0h52v52H0z"/>
  <path d="M17.8312 31.94155h-7.42858v-7.42857h7.41547v7.42857zM10.40261 7.42857v12.62988h2.22726v-.36684c0-5.9481 3.3409-9.65583 9.65583-9.65583h.36685V36.776c0 3.70774-1.48048 5.20131-5.20131 5.20131h-1.11363v2.5941h19.31166v-2.5941h-1.11363c-3.70773 0-5.2013-1.48047-5.2013-5.2013V10.02267h.36683c6.31495 0 9.65584 3.70773 9.65584 9.65583v.36684h2.22726V7.42857Zm23.76619 24.51298h7.42857v-7.42857h-7.41547v7.42857z" fill="#fff"/>
</svg>
